<svg width="55px" height="22px" viewBox="0 0 55 22" xmlns="http://www.w3.org/2000/svg" xmlns:xlink="http://www.w3.org/1999/xlink" style="width: 55px; height: 22px;"><g transform="matrix(1, 0, 0, 1, 0, 0)" clip-path="url(#mainClip2913)"><g transform="matrix(0.1, 0, 0, 0.1, 1, 7.285148798865595)"><g transform="matrix(1, 0, 0, 1, 420.6244059341159, -36.43274002075197)"><path d="M 0,0 L 50,0" fill="none" stroke="rgb(32,33,34)" stroke-width="3.2" stroke-linecap="butt" stroke-linejoin="miter" stroke-miterlimit="10" transform="matrix(1, 0, 0, 1, 1.6, 1.6)"></path></g><g transform="matrix(1, 0, 0, 1, 218.72160930534804, -36.43274002075197)"><path d="M 0,35.894230085649944 C 0,17.947115042824972 55.07376362772993,0 110.14752725545992,0" fill="none" stroke="rgb(32,33,34)" stroke-width="3.2" stroke-linecap="butt" stroke-linejoin="miter" stroke-miterlimit="10" transform="matrix(1, 0, 0, 1, 1.6, 1.6)"></path></g><g transform="matrix(1, 0, 0, 1, 217.00338801266744, 63.210850375821245)"><path d="M 0,0 C 0,18.19695276961737 55.932874274070286,36.39390553923474 111.86574854814052,36.39390553923474" fill="none" stroke="rgb(32,33,34)" stroke-width="3.2" stroke-linecap="butt" stroke-linejoin="miter" stroke-miterlimit="10" transform="matrix(1, 0, 0, 1, 1.6, 1.6)"></path></g><g transform="matrix(1, 0, 0, 1, 420.6244059341159, 99.60475591505599)"><path d="M 0,0 L 50,0" fill="none" stroke="rgb(32,33,34)" stroke-width="3.2" stroke-linecap="butt" stroke-linejoin="miter" stroke-miterlimit="10" transform="matrix(1, 0, 0, 1, 1.6, 1.6)"></path></g><g transform="matrix(1, 0, 0, 1, 0, 0)"><g transform="matrix(1, 0, 0, 1, 0.5, 0)"><path d="M 5,0 L 251.96913656080795,0 C 254.20771281165398,0 256.96913656080795,2.761423749153968 256.96913656080795,5 L 256.96913656080795,57.87201589430403 C 256.96913656080795,60.11059214515006 254.20771281165398,62.87201589430403 251.96913656080795,62.87201589430403 L 5,62.87201589430403 C 2.761423749153968,62.87201589430403 0,60.11059214515006 0,57.87201589430403 L 0,5 C 0,2.761423749153968 2.761423749153968,0 5,0 z" fill="rgb(255,0,0)" stroke="none" transform="matrix(1, 0, 0, 1, 1.5, 1.5)"></path><text x="0" y="31.011876296997073" style="font: normal 38px NeverMind" text-anchor="start" fill="white" stroke="none" transform="matrix(1, 0, 0, 1, 19.261423749153984, 12.261423749153964)">Central Topic</text></g></g><g transform="matrix(1, 0, 0, 1, 472.2244059341159, -57.678683728402035)"><g transform="matrix(1, 0, 0, 1, 0.5, 0)"><text x="0" y="15.50177993774414" style="font: 19px Nevermind" text-anchor="start" fill="rgb(32,33,34)" stroke="none" transform="matrix(1, 0, 0, 1, 7.261423749153968, 12.261423749153968)">idea</text></g></g><g transform="matrix(1, 0, 0, 1, 330.46913656080795, -62.85148798865594)"><g transform="matrix(1, 0, 0, 1, 0.5, 0)"><path d="M 5,0 L 83.25526937330794,0 C 85.49384562415398,0 88.25526937330794,2.761423749153968 88.25526937330794,5 L 88.25526937330794,47.53749593580794 C 88.25526937330794,49.77607218665397 85.49384562415398,52.53749593580794 83.25526937330794,52.53749593580794 L 5,52.53749593580794 C 2.761423749153968,52.53749593580794 0,49.77607218665397 0,47.53749593580794 L 0,5 C 0,2.761423749153968 2.761423749153968,0 5,0 z" fill="rgb(232,232,232)" stroke="none" transform="matrix(1, 0, 0, 1, 1.5, 1.5)"></path><text x="0" y="23.260986328125" style="font: normal 28px NeverMind" text-anchor="start" fill="rgb(32,33,34)" stroke="none" transform="matrix(1, 0, 0, 1, 19.261423749153977, 12.261423749153968)">idea</text></g><g transform="matrix(1, 0, 0, 1, 0, 35.03749593580794)"></g></g><g transform="matrix(1, 0, 0, 1, 330.46913656080795, 73.186007947152)"><g transform="matrix(1, 0, 0, 1, 0.5, 0)"><path d="M 5,0 L 83.25526937330794,0 C 85.49384562415398,0 88.25526937330794,2.761423749153968 88.25526937330794,5 L 88.25526937330794,47.53749593580794 C 88.25526937330794,49.77607218665397 85.49384562415398,52.53749593580794 83.25526937330794,52.53749593580794 L 5,52.53749593580794 C 2.761423749153968,52.53749593580794 0,49.77607218665397 0,47.53749593580794 L 0,5 C 0,2.761423749153968 2.761423749153968,0 5,0 z" fill="rgb(232,232,232)" stroke="none" transform="matrix(1, 0, 0, 1, 1.5, 1.5)"></path><text x="0" y="23.260986328125" style="font: normal 28px NeverMind" text-anchor="start" fill="rgb(32,33,34)" stroke="none" transform="matrix(1, 0, 0, 1, 19.261423749153977, 12.261423749153968)">idea</text></g></g><g transform="matrix(1, 0, 0, 1, 472.2244059341159, 78.35881220740592)"><g transform="matrix(1, 0, 0, 1, 0.5, 0)"><text x="0" y="15.50177993774414" style="font: normal 19px NeverMind" text-anchor="start" fill="rgb(32,33,34)" stroke="none" transform="matrix(1, 0, 0, 1, 7.261423749153968, 12.261423749153968)">idea</text></g></g></g></g><clipPath id="mainClip2913"><rect x="0" y="0" width="55px" height="22px"></rect></clipPath></svg>